<svg xmlns="http://www.w3.org/2000/svg" width="1440" height="1024" viewBox="0 0 1440 1024">
    <defs>
        <radialGradient id="a" cx="51.299%" r="70.056%" fx="51.299%" fy="50%">
            <stop offset="0%" stop-color="#FAAD37"/>
            <stop offset="100%" stop-color="#FAAD37" stop-opacity="0"/>
        </radialGradient>
    </defs>
    <g fill="none" fill-rule="evenodd" transform="translate(-14 -78)">
        <g stroke="#E29A31">
            <path d="M.727 97.033l43.154-24.05 43.154 24.05v48.1l-43.154 24.05-43.154-24.05z"/>
            <path d="M87.033 97.033l43.154-24.05 43.154 24.05v48.1l-43.154 24.05-43.154-24.05z"/>
            <path d="M173.339 97.033l43.154-24.05 43.154 24.05v48.1l-43.154 24.05-43.154-24.05z"/>
            <path d="M259.645 97.033l43.154-24.05 43.154 24.05v48.1l-43.154 24.05-43.154-24.05z"/>
            <path d="M345.95 97.033l43.155-24.05 43.154 24.05v48.1l-43.154 24.05-43.154-24.05z"/>
            <path d="M432.257 97.033l43.154-24.05 43.154 24.05v48.1l-43.154 24.05-43.154-24.05z"/>
            <path d="M518.563 97.033l43.154-24.05 43.154 24.05v48.1l-43.154 24.05-43.154-24.05z"/>
            <path d="M604.869 97.033l43.154-24.05 43.154 24.05v48.1l-43.154 24.05-43.154-24.05z"/>
            <path d="M691.175 97.033l43.154-24.05 43.154 24.05v48.1l-43.154 24.05-43.154-24.05z"/>
            <path d="M777.481 97.033l43.154-24.05 43.155 24.05v48.1l-43.155 24.05-43.154-24.05z"/>
            <path d="M863.787 97.033l43.154-24.05 43.155 24.05v48.1l-43.155 24.05-43.154-24.05z"/>
            <path d="M950.093 97.033l43.154-24.05 43.155 24.05v48.1l-43.155 24.05-43.154-24.05z"/>
            <path d="M1036.399 97.033l43.154-24.05 43.155 24.05v48.1l-43.155 24.05-43.154-24.05z"/>
            <path d="M1122.705 97.033l43.154-24.05 43.155 24.05v48.1l-43.155 24.05-43.154-24.05z"/>
            <path d="M1209.011 97.033l43.154-24.05 43.155 24.05v48.1l-43.155 24.05-43.154-24.05z"/>
            <path d="M1295.317 97.033l43.154-24.05 43.155 24.05v48.1l-43.155 24.05-43.154-24.05z"/>
            <path d="M1381.623 97.033l43.155-24.05 43.154 24.05v48.1l-43.154 24.05-43.155-24.05zM43.88 24.882L87.036.832l43.154 24.05v48.1l-43.154 24.05-43.154-24.05z"/>
            <path d="M130.187 24.882L173.34.832l43.154 24.05v48.1l-43.154 24.05-43.154-24.05z"/>
            <path d="M216.493 24.882L259.647.832l43.154 24.05v48.1l-43.154 24.05-43.154-24.05z"/>
            <path d="M302.799 24.882L345.953.832l43.154 24.05v48.1l-43.154 24.05-43.154-24.05z"/>
            <path d="M389.105 24.882L432.259.832l43.154 24.05v48.1l-43.154 24.05-43.154-24.05z"/>
            <path d="M475.41 24.882L518.566.832l43.154 24.05v48.1l-43.154 24.05-43.154-24.05z"/>
            <path d="M561.717 24.882L604.87.832l43.154 24.05v48.1l-43.154 24.05-43.154-24.05z"/>
            <path d="M648.023 24.882L691.177.832l43.154 24.05v48.1l-43.154 24.05-43.154-24.05z"/>
            <path d="M734.329 24.882L777.483.832l43.154 24.05v48.1l-43.154 24.05-43.154-24.05z"/>
            <path d="M820.635 24.882L863.789.832l43.154 24.05v48.1l-43.154 24.05-43.154-24.05z"/>
            <path d="M906.941 24.882L950.095.832l43.155 24.05v48.1l-43.155 24.05-43.154-24.05z"/>
            <path d="M993.247 24.882l43.154-24.05 43.155 24.05v48.1l-43.155 24.05-43.154-24.05z"/>
            <path d="M1079.553 24.882l43.154-24.05 43.155 24.05v48.1l-43.155 24.05-43.154-24.05z"/>
            <path d="M1165.86 24.882l43.154-24.05 43.154 24.05v48.1l-43.154 24.05-43.155-24.05z"/>
            <path d="M1252.165 24.882L1295.32.832l43.154 24.05v48.1l-43.154 24.05-43.155-24.05z"/>
            <path d="M1338.471 24.882l43.155-24.05 43.154 24.05v48.1l-43.154 24.05-43.155-24.05zM.727 241.335l43.154-24.05 43.154 24.05v48.1l-43.154 24.05-43.154-24.05z"/>
            <path d="M87.033 241.335l43.154-24.05 43.154 24.05v48.1l-43.154 24.05-43.154-24.05z"/>
            <path d="M173.339 241.335l43.154-24.05 43.154 24.05v48.1l-43.154 24.05-43.154-24.05z"/>
            <path d="M259.645 241.335l43.154-24.05 43.154 24.05v48.1l-43.154 24.05-43.154-24.05z"/>
            <path d="M345.95 241.335l43.155-24.05 43.154 24.05v48.1l-43.154 24.05-43.154-24.05z"/>
            <path d="M432.257 241.335l43.154-24.05 43.154 24.05v48.1l-43.154 24.05-43.154-24.05z"/>
            <path d="M518.563 241.335l43.154-24.05 43.154 24.05v48.1l-43.154 24.05-43.154-24.05z"/>
            <path d="M604.869 241.335l43.154-24.05 43.154 24.05v48.1l-43.154 24.05-43.154-24.05z"/>
            <path d="M691.175 241.335l43.154-24.05 43.154 24.05v48.1l-43.154 24.05-43.154-24.05z"/>
            <path d="M777.481 241.335l43.154-24.05 43.155 24.05v48.1l-43.155 24.05-43.154-24.05z"/>
            <path d="M863.787 241.335l43.154-24.05 43.155 24.05v48.1l-43.155 24.05-43.154-24.05z"/>
            <path d="M950.093 241.335l43.154-24.05 43.155 24.05v48.1l-43.155 24.05-43.154-24.05z"/>
            <path d="M1036.399 241.335l43.154-24.05 43.155 24.05v48.1l-43.155 24.05-43.154-24.05z"/>
            <path d="M1122.705 241.335l43.154-24.05 43.155 24.05v48.1l-43.155 24.05-43.154-24.05z"/>
            <path d="M1209.011 241.335l43.154-24.05 43.155 24.05v48.1l-43.155 24.05-43.154-24.05z"/>
            <path d="M1295.317 241.335l43.154-24.05 43.155 24.05v48.1l-43.155 24.05-43.154-24.05z"/>
            <path d="M1381.623 241.335l43.155-24.05 43.154 24.05v48.1l-43.154 24.05-43.155-24.05zM43.88 169.184l43.155-24.05 43.154 24.05v48.1l-43.154 24.05-43.154-24.05z"/>
            <path d="M130.187 169.184l43.154-24.05 43.154 24.05v48.1l-43.154 24.05-43.154-24.05z"/>
            <path d="M216.493 169.184l43.154-24.05 43.154 24.05v48.1l-43.154 24.05-43.154-24.05z"/>
            <path d="M302.799 169.184l43.154-24.05 43.154 24.05v48.1l-43.154 24.05-43.154-24.05z"/>
            <path d="M389.105 169.184l43.154-24.05 43.154 24.05v48.1l-43.154 24.05-43.154-24.05z"/>
            <path d="M475.41 169.184l43.155-24.05 43.154 24.05v48.1l-43.154 24.05-43.154-24.05z"/>
            <path d="M561.717 169.184l43.154-24.05 43.154 24.05v48.1l-43.154 24.05-43.154-24.05z"/>
            <path d="M648.023 169.184l43.154-24.05 43.154 24.05v48.1l-43.154 24.05-43.154-24.05z"/>
            <path d="M734.329 169.184l43.154-24.05 43.154 24.05v48.1l-43.154 24.05-43.154-24.05z"/>
            <path d="M820.635 169.184l43.154-24.05 43.154 24.05v48.1l-43.154 24.05-43.154-24.05z"/>
            <path d="M906.941 169.184l43.154-24.05 43.155 24.05v48.1l-43.155 24.05-43.154-24.05z"/>
            <path d="M993.247 169.184l43.154-24.05 43.155 24.05v48.1l-43.155 24.05-43.154-24.05z"/>
            <path d="M1079.553 169.184l43.154-24.05 43.155 24.05v48.1l-43.155 24.05-43.154-24.05z"/>
            <path d="M1165.86 169.184l43.154-24.05 43.154 24.05v48.1l-43.154 24.05-43.155-24.05z"/>
            <path d="M1252.165 169.184l43.155-24.05 43.154 24.05v48.1l-43.154 24.05-43.155-24.05z"/>
            <path d="M1338.471 169.184l43.155-24.05 43.154 24.05v48.1l-43.154 24.05-43.155-24.05zM.727 385.637l43.154-24.05 43.154 24.05v48.1l-43.154 24.05-43.154-24.05z"/>
            <path d="M87.033 385.637l43.154-24.05 43.154 24.05v48.1l-43.154 24.05-43.154-24.05z"/>
            <path d="M173.339 385.637l43.154-24.05 43.154 24.05v48.1l-43.154 24.05-43.154-24.05z"/>
            <path d="M259.645 385.637l43.154-24.05 43.154 24.05v48.1l-43.154 24.05-43.154-24.05z"/>
            <path d="M345.95 385.637l43.155-24.05 43.154 24.05v48.1l-43.154 24.05-43.154-24.05z"/>
            <path d="M432.257 385.637l43.154-24.05 43.154 24.05v48.1l-43.154 24.05-43.154-24.05z"/>
            <path d="M518.563 385.637l43.154-24.05 43.154 24.05v48.1l-43.154 24.05-43.154-24.05z"/>
            <path d="M604.869 385.637l43.154-24.05 43.154 24.05v48.1l-43.154 24.05-43.154-24.05z"/>
            <path d="M691.175 385.637l43.154-24.05 43.154 24.05v48.1l-43.154 24.05-43.154-24.05z"/>
            <path d="M777.481 385.637l43.154-24.05 43.155 24.05v48.1l-43.155 24.05-43.154-24.05z"/>
            <path d="M863.787 385.637l43.154-24.05 43.155 24.05v48.1l-43.155 24.05-43.154-24.05z"/>
            <path d="M950.093 385.637l43.154-24.05 43.155 24.05v48.1l-43.155 24.05-43.154-24.05z"/>
            <path d="M1036.399 385.637l43.154-24.05 43.155 24.05v48.1l-43.155 24.05-43.154-24.05z"/>
            <path d="M1122.705 385.637l43.154-24.05 43.155 24.05v48.1l-43.155 24.05-43.154-24.05z"/>
            <path d="M1209.011 385.637l43.154-24.05 43.155 24.05v48.1l-43.155 24.05-43.154-24.05z"/>
            <path d="M1295.317 385.637l43.154-24.05 43.155 24.05v48.1l-43.155 24.05-43.154-24.05z"/>
            <path d="M1381.623 385.637l43.155-24.05 43.154 24.05v48.1l-43.154 24.05-43.155-24.05zM43.88 313.486l43.155-24.05 43.154 24.05v48.1l-43.154 24.05-43.154-24.05z"/>
            <path d="M130.187 313.486l43.154-24.05 43.154 24.05v48.1l-43.154 24.05-43.154-24.05z"/>
            <path d="M216.493 313.486l43.154-24.05 43.154 24.05v48.1l-43.154 24.05-43.154-24.05z"/>
            <path d="M302.799 313.486l43.154-24.05 43.154 24.05v48.1l-43.154 24.05-43.154-24.05z"/>
            <path d="M389.105 313.486l43.154-24.05 43.154 24.05v48.1l-43.154 24.05-43.154-24.05z"/>
            <path d="M475.41 313.486l43.155-24.05 43.154 24.05v48.1l-43.154 24.05-43.154-24.05z"/>
            <path d="M561.717 313.486l43.154-24.05 43.154 24.05v48.1l-43.154 24.05-43.154-24.05z"/>
            <path d="M648.023 313.486l43.154-24.05 43.154 24.05v48.1l-43.154 24.05-43.154-24.05z"/>
            <path d="M734.329 313.486l43.154-24.05 43.154 24.05v48.1l-43.154 24.05-43.154-24.05z"/>
            <path d="M820.635 313.486l43.154-24.05 43.154 24.05v48.1l-43.154 24.05-43.154-24.05z"/>
            <path d="M906.941 313.486l43.154-24.05 43.155 24.05v48.1l-43.155 24.05-43.154-24.05z"/>
            <path d="M993.247 313.486l43.154-24.05 43.155 24.05v48.1l-43.155 24.05-43.154-24.05z"/>
            <path d="M1079.553 313.486l43.154-24.05 43.155 24.05v48.1l-43.155 24.05-43.154-24.05z"/>
            <path d="M1165.86 313.486l43.154-24.05 43.154 24.05v48.1l-43.154 24.05-43.155-24.05z"/>
            <path d="M1252.165 313.486l43.155-24.05 43.154 24.05v48.1l-43.154 24.05-43.155-24.05z"/>
            <path d="M1338.471 313.486l43.155-24.05 43.154 24.05v48.1l-43.154 24.05-43.155-24.05zM.727 529.94l43.154-24.051 43.154 24.05v48.1L43.881 602.09.727 578.04z"/>
            <path d="M87.033 529.94l43.154-24.051 43.154 24.05v48.1l-43.154 24.051-43.154-24.05z"/>
            <path d="M173.339 529.94l43.154-24.051 43.154 24.05v48.1l-43.154 24.051-43.154-24.05z"/>
            <path d="M259.645 529.94l43.154-24.051 43.154 24.05v48.1L302.8 602.09l-43.154-24.05z"/>
            <path d="M345.95 529.94l43.155-24.051 43.154 24.05v48.1l-43.154 24.051-43.154-24.05z"/>
            <path d="M432.257 529.94l43.154-24.051 43.154 24.05v48.1l-43.154 24.051-43.154-24.05z"/>
            <path d="M518.563 529.94l43.154-24.051 43.154 24.05v48.1l-43.154 24.051-43.154-24.05z"/>
            <path d="M604.869 529.94l43.154-24.051 43.154 24.05v48.1l-43.154 24.051-43.154-24.05z"/>
            <path d="M691.175 529.94l43.154-24.051 43.154 24.05v48.1L734.33 602.09l-43.154-24.05z"/>
            <path d="M777.481 529.94l43.154-24.051 43.155 24.05v48.1l-43.155 24.051-43.154-24.05z"/>
            <path d="M863.787 529.94l43.154-24.051 43.155 24.05v48.1L906.94 602.09l-43.154-24.05z"/>
            <path d="M950.093 529.94l43.154-24.051 43.155 24.05v48.1l-43.155 24.051-43.154-24.05z"/>
            <path d="M1036.399 529.94l43.154-24.051 43.155 24.05v48.1l-43.155 24.051-43.154-24.05z"/>
            <path d="M1122.705 529.94l43.154-24.051 43.155 24.05v48.1l-43.155 24.051-43.154-24.05z"/>
            <path d="M1209.011 529.94l43.154-24.051 43.155 24.05v48.1l-43.155 24.051-43.154-24.05z"/>
            <path d="M1295.317 529.94l43.154-24.051 43.155 24.05v48.1l-43.155 24.051-43.154-24.05z"/>
            <path d="M1381.623 529.94l43.155-24.051 43.154 24.05v48.1l-43.154 24.051-43.155-24.05zM43.88 457.788l43.155-24.05 43.154 24.05v48.1L87.035 529.94l-43.154-24.05z"/>
            <path d="M130.187 457.788l43.154-24.05 43.154 24.05v48.1l-43.154 24.051-43.154-24.05z"/>
            <path d="M216.493 457.788l43.154-24.05 43.154 24.05v48.1l-43.154 24.051-43.154-24.05z"/>
            <path d="M302.799 457.788l43.154-24.05 43.154 24.05v48.1l-43.154 24.051-43.154-24.05z"/>
            <path d="M389.105 457.788l43.154-24.05 43.154 24.05v48.1L432.26 529.94l-43.154-24.05z"/>
            <path d="M475.41 457.788l43.155-24.05 43.154 24.05v48.1l-43.154 24.051-43.154-24.05z"/>
            <path d="M561.717 457.788l43.154-24.05 43.154 24.05v48.1l-43.154 24.051-43.154-24.05z"/>
            <path d="M648.023 457.788l43.154-24.05 43.154 24.05v48.1l-43.154 24.051-43.154-24.05z"/>
            <path d="M734.329 457.788l43.154-24.05 43.154 24.05v48.1l-43.154 24.051-43.154-24.05z"/>
            <path d="M820.635 457.788l43.154-24.05 43.154 24.05v48.1L863.79 529.94l-43.154-24.05z"/>
            <path d="M906.941 457.788l43.154-24.05 43.155 24.05v48.1l-43.155 24.051-43.154-24.05z"/>
            <path d="M993.247 457.788l43.154-24.05 43.155 24.05v48.1L1036.4 529.94l-43.154-24.05z"/>
            <path d="M1079.553 457.788l43.154-24.05 43.155 24.05v48.1l-43.155 24.051-43.154-24.05z"/>
            <path d="M1165.86 457.788l43.154-24.05 43.154 24.05v48.1l-43.154 24.051-43.155-24.05z"/>
            <path d="M1252.165 457.788l43.155-24.05 43.154 24.05v48.1l-43.154 24.051-43.155-24.05z"/>
            <path d="M1338.471 457.788l43.155-24.05 43.154 24.05v48.1l-43.154 24.051-43.155-24.05zM.727 674.241l43.154-24.05 43.154 24.05v48.1l-43.154 24.051-43.154-24.05z"/>
            <path d="M87.033 674.241l43.154-24.05 43.154 24.05v48.1l-43.154 24.051-43.154-24.05z"/>
            <path d="M173.339 674.241l43.154-24.05 43.154 24.05v48.1l-43.154 24.051-43.154-24.05z"/>
            <path d="M259.645 674.241l43.154-24.05 43.154 24.05v48.1L302.8 746.393l-43.154-24.05z"/>
            <path d="M345.95 674.241l43.155-24.05 43.154 24.05v48.1l-43.154 24.051-43.154-24.05z"/>
            <path d="M432.257 674.241l43.154-24.05 43.154 24.05v48.1l-43.154 24.051-43.154-24.05z"/>
            <path d="M518.563 674.241l43.154-24.05 43.154 24.05v48.1l-43.154 24.051-43.154-24.05z"/>
            <path d="M604.869 674.241l43.154-24.05 43.154 24.05v48.1l-43.154 24.051-43.154-24.05z"/>
            <path d="M691.175 674.241l43.154-24.05 43.154 24.05v48.1l-43.154 24.051-43.154-24.05z"/>
            <path d="M777.481 674.241l43.154-24.05 43.155 24.05v48.1l-43.155 24.051-43.154-24.05z"/>
            <path d="M863.787 674.241l43.154-24.05 43.155 24.05v48.1l-43.155 24.051-43.154-24.05z"/>
            <path d="M950.093 674.241l43.154-24.05 43.155 24.05v48.1l-43.155 24.051-43.154-24.05z"/>
            <path d="M1036.399 674.241l43.154-24.05 43.155 24.05v48.1l-43.155 24.051-43.154-24.05z"/>
            <path d="M1122.705 674.241l43.154-24.05 43.155 24.05v48.1l-43.155 24.051-43.154-24.05z"/>
            <path d="M1209.011 674.241l43.154-24.05 43.155 24.05v48.1l-43.155 24.051-43.154-24.05z"/>
            <path d="M1295.317 674.241l43.154-24.05 43.155 24.05v48.1l-43.155 24.051-43.154-24.05z"/>
            <path d="M1381.623 674.241l43.155-24.05 43.154 24.05v48.1l-43.154 24.051-43.155-24.05zM43.88 602.09l43.155-24.05 43.154 24.05v48.1l-43.154 24.051-43.154-24.05z"/>
            <path d="M130.187 602.09l43.154-24.05 43.154 24.05v48.1l-43.154 24.051-43.154-24.05z"/>
            <path d="M216.493 602.09l43.154-24.05 43.154 24.05v48.1l-43.154 24.051-43.154-24.05z"/>
            <path d="M302.799 602.09l43.154-24.05 43.154 24.05v48.1l-43.154 24.051-43.154-24.05z"/>
            <path d="M389.105 602.09l43.154-24.05 43.154 24.05v48.1l-43.154 24.051-43.154-24.05z"/>
            <path d="M475.41 602.09l43.155-24.05 43.154 24.05v48.1l-43.154 24.051-43.154-24.05z"/>
            <path d="M561.717 602.09l43.154-24.05 43.154 24.05v48.1l-43.154 24.051-43.154-24.05z"/>
            <path d="M648.023 602.09l43.154-24.05 43.154 24.05v48.1l-43.154 24.051-43.154-24.05z"/>
            <path d="M734.329 602.09l43.154-24.05 43.154 24.05v48.1l-43.154 24.051-43.154-24.05z"/>
            <path d="M820.635 602.09l43.154-24.05 43.154 24.05v48.1l-43.154 24.051-43.154-24.05z"/>
            <path d="M906.941 602.09l43.154-24.05 43.155 24.05v48.1l-43.155 24.051-43.154-24.05z"/>
            <path d="M993.247 602.09l43.154-24.05 43.155 24.05v48.1l-43.155 24.051-43.154-24.05z"/>
            <path d="M1079.553 602.09l43.154-24.05 43.155 24.05v48.1l-43.155 24.051-43.154-24.05z"/>
            <path d="M1165.86 602.09l43.154-24.05 43.154 24.05v48.1l-43.154 24.051-43.155-24.05z"/>
            <path d="M1252.165 602.09l43.155-24.05 43.154 24.05v48.1l-43.154 24.051-43.155-24.05z"/>
            <path d="M1338.471 602.09l43.155-24.05 43.154 24.05v48.1l-43.154 24.051-43.155-24.05zM.727 818.544l43.154-24.05 43.154 24.05v48.1l-43.154 24.05-43.154-24.05z"/>
            <path d="M87.033 818.544l43.154-24.05 43.154 24.05v48.1l-43.154 24.05-43.154-24.05z"/>
            <path d="M173.339 818.544l43.154-24.05 43.154 24.05v48.1l-43.154 24.05-43.154-24.05z"/>
            <path d="M259.645 818.544l43.154-24.05 43.154 24.05v48.1l-43.154 24.05-43.154-24.05z"/>
            <path d="M345.95 818.544l43.155-24.05 43.154 24.05v48.1l-43.154 24.05-43.154-24.05z"/>
            <path d="M432.257 818.544l43.154-24.05 43.154 24.05v48.1l-43.154 24.05-43.154-24.05z"/>
            <path d="M518.563 818.544l43.154-24.05 43.154 24.05v48.1l-43.154 24.05-43.154-24.05z"/>
            <path d="M604.869 818.544l43.154-24.05 43.154 24.05v48.1l-43.154 24.05-43.154-24.05z"/>
            <path d="M691.175 818.544l43.154-24.05 43.154 24.05v48.1l-43.154 24.05-43.154-24.05z"/>
            <path d="M777.481 818.544l43.154-24.05 43.155 24.05v48.1l-43.155 24.05-43.154-24.05z"/>
            <path d="M863.787 818.544l43.154-24.05 43.155 24.05v48.1l-43.155 24.05-43.154-24.05z"/>
            <path d="M950.093 818.544l43.154-24.05 43.155 24.05v48.1l-43.155 24.05-43.154-24.05z"/>
            <path d="M1036.399 818.544l43.154-24.05 43.155 24.05v48.1l-43.155 24.05-43.154-24.05z"/>
            <path d="M1122.705 818.544l43.154-24.05 43.155 24.05v48.1l-43.155 24.05-43.154-24.05z"/>
            <path d="M1209.011 818.544l43.154-24.05 43.155 24.05v48.1l-43.155 24.05-43.154-24.05z"/>
            <path d="M1295.317 818.544l43.154-24.05 43.155 24.05v48.1l-43.155 24.05-43.154-24.05z"/>
            <path d="M1381.623 818.544l43.155-24.05 43.154 24.05v48.1l-43.154 24.05-43.155-24.05zM43.88 746.393l43.155-24.05 43.154 24.05v48.1l-43.154 24.05-43.154-24.05z"/>
            <path d="M130.187 746.393l43.154-24.05 43.154 24.05v48.1l-43.154 24.05-43.154-24.05z"/>
            <path d="M216.493 746.393l43.154-24.05 43.154 24.05v48.1l-43.154 24.05-43.154-24.05z"/>
            <path d="M302.799 746.393l43.154-24.05 43.154 24.05v48.1l-43.154 24.05-43.154-24.05z"/>
            <path d="M389.105 746.393l43.154-24.05 43.154 24.05v48.1l-43.154 24.05-43.154-24.05z"/>
            <path d="M475.41 746.393l43.155-24.05 43.154 24.05v48.1l-43.154 24.05-43.154-24.05z"/>
            <path d="M561.717 746.393l43.154-24.05 43.154 24.05v48.1l-43.154 24.05-43.154-24.05z"/>
            <path d="M648.023 746.393l43.154-24.05 43.154 24.05v48.1l-43.154 24.05-43.154-24.05z"/>
            <path d="M734.329 746.393l43.154-24.05 43.154 24.05v48.1l-43.154 24.05-43.154-24.05z"/>
            <path d="M820.635 746.393l43.154-24.05 43.154 24.05v48.1l-43.154 24.05-43.154-24.05z"/>
            <path d="M906.941 746.393l43.154-24.05 43.155 24.05v48.1l-43.155 24.05-43.154-24.05z"/>
            <path d="M993.247 746.393l43.154-24.05 43.155 24.05v48.1l-43.155 24.05-43.154-24.05z"/>
            <path d="M1079.553 746.393l43.154-24.05 43.155 24.05v48.1l-43.155 24.05-43.154-24.05z"/>
            <path d="M1165.86 746.393l43.154-24.05 43.154 24.05v48.1l-43.154 24.05-43.155-24.05z"/>
            <path d="M1252.165 746.393l43.155-24.05 43.154 24.05v48.1l-43.154 24.05-43.155-24.05z"/>
            <path d="M1338.471 746.393l43.155-24.05 43.154 24.05v48.1l-43.154 24.05-43.155-24.05zM.727 962.846l43.154-24.05 43.154 24.05v48.1l-43.154 24.05-43.154-24.05z"/>
            <path d="M87.033 962.846l43.154-24.05 43.154 24.05v48.1l-43.154 24.05-43.154-24.05z"/>
            <path d="M173.339 962.846l43.154-24.05 43.154 24.05v48.1l-43.154 24.05-43.154-24.05z"/>
            <path d="M259.645 962.846l43.154-24.05 43.154 24.05v48.1l-43.154 24.05-43.154-24.05z"/>
            <path d="M345.95 962.846l43.155-24.05 43.154 24.05v48.1l-43.154 24.05-43.154-24.05z"/>
            <path d="M432.257 962.846l43.154-24.05 43.154 24.05v48.1l-43.154 24.05-43.154-24.05z"/>
            <path d="M518.563 962.846l43.154-24.05 43.154 24.05v48.1l-43.154 24.05-43.154-24.05z"/>
            <path d="M604.869 962.846l43.154-24.05 43.154 24.05v48.1l-43.154 24.05-43.154-24.05z"/>
            <path d="M691.175 962.846l43.154-24.05 43.154 24.05v48.1l-43.154 24.05-43.154-24.05z"/>
            <path d="M777.481 962.846l43.154-24.05 43.155 24.05v48.1l-43.155 24.05-43.154-24.05z"/>
            <path d="M863.787 962.846l43.154-24.05 43.155 24.05v48.1l-43.155 24.05-43.154-24.05z"/>
            <path d="M950.093 962.846l43.154-24.05 43.155 24.05v48.1l-43.155 24.05-43.154-24.05z"/>
            <path d="M1036.399 962.846l43.154-24.05 43.155 24.05v48.1l-43.155 24.05-43.154-24.05z"/>
            <path d="M1122.705 962.846l43.154-24.05 43.155 24.05v48.1l-43.155 24.05-43.154-24.05z"/>
            <path d="M1209.011 962.846l43.154-24.05 43.155 24.05v48.1l-43.155 24.05-43.154-24.05z"/>
            <path d="M1295.317 962.846l43.154-24.05 43.155 24.05v48.1l-43.155 24.05-43.154-24.05z"/>
            <path d="M1381.623 962.846l43.155-24.05 43.154 24.05v48.1l-43.154 24.05-43.155-24.05zM43.88 890.695l43.155-24.05 43.154 24.05v48.1l-43.154 24.05-43.154-24.05z"/>
            <path d="M130.187 890.695l43.154-24.05 43.154 24.05v48.1l-43.154 24.05-43.154-24.05z"/>
            <path d="M216.493 890.695l43.154-24.05 43.154 24.05v48.1l-43.154 24.05-43.154-24.05z"/>
            <path d="M302.799 890.695l43.154-24.05 43.154 24.05v48.1l-43.154 24.05-43.154-24.05z"/>
            <path d="M389.105 890.695l43.154-24.05 43.154 24.05v48.1l-43.154 24.05-43.154-24.05z"/>
            <path d="M475.41 890.695l43.155-24.05 43.154 24.05v48.1l-43.154 24.05-43.154-24.05z"/>
            <path d="M561.717 890.695l43.154-24.05 43.154 24.05v48.1l-43.154 24.05-43.154-24.05z"/>
            <path d="M648.023 890.695l43.154-24.05 43.154 24.05v48.1l-43.154 24.05-43.154-24.05z"/>
            <path d="M734.329 890.695l43.154-24.05 43.154 24.05v48.1l-43.154 24.05-43.154-24.05z"/>
            <path d="M820.635 890.695l43.154-24.05 43.154 24.05v48.1l-43.154 24.05-43.154-24.05z"/>
            <path d="M906.941 890.695l43.154-24.05 43.155 24.05v48.1l-43.155 24.05-43.154-24.05z"/>
            <path d="M993.247 890.695l43.154-24.05 43.155 24.05v48.1l-43.155 24.05-43.154-24.05z"/>
            <path d="M1079.553 890.695l43.154-24.05 43.155 24.05v48.1l-43.155 24.05-43.154-24.05z"/>
            <path d="M1165.86 890.695l43.154-24.05 43.154 24.05v48.1l-43.154 24.05-43.155-24.05z"/>
            <path d="M1252.165 890.695l43.155-24.05 43.154 24.05v48.1l-43.154 24.05-43.155-24.05z"/>
            <path d="M1338.471 890.695l43.155-24.05 43.154 24.05v48.1l-43.154 24.05-43.155-24.05zM.727 1107.148l43.154-24.05 43.154 24.05v48.1l-43.154 24.05-43.154-24.05z"/>
            <path d="M87.033 1107.148l43.154-24.05 43.154 24.05v48.1l-43.154 24.05-43.154-24.05z"/>
            <path d="M173.339 1107.148l43.154-24.05 43.154 24.05v48.1l-43.154 24.05-43.154-24.05z"/>
            <path d="M259.645 1107.148l43.154-24.05 43.154 24.05v48.1l-43.154 24.05-43.154-24.05z"/>
            <path d="M345.95 1107.148l43.155-24.05 43.154 24.05v48.1l-43.154 24.05-43.154-24.05z"/>
            <path d="M432.257 1107.148l43.154-24.05 43.154 24.05v48.1l-43.154 24.05-43.154-24.05z"/>
            <path d="M518.563 1107.148l43.154-24.05 43.154 24.05v48.1l-43.154 24.05-43.154-24.05z"/>
            <path d="M604.869 1107.148l43.154-24.05 43.154 24.05v48.1l-43.154 24.05-43.154-24.05z"/>
            <path d="M691.175 1107.148l43.154-24.05 43.154 24.05v48.1l-43.154 24.05-43.154-24.05z"/>
            <path d="M777.481 1107.148l43.154-24.05 43.155 24.05v48.1l-43.155 24.05-43.154-24.05z"/>
            <path d="M863.787 1107.148l43.154-24.05 43.155 24.05v48.1l-43.155 24.05-43.154-24.05z"/>
            <path d="M950.093 1107.148l43.154-24.05 43.155 24.05v48.1l-43.155 24.05-43.154-24.05z"/>
            <path d="M1036.399 1107.148l43.154-24.05 43.155 24.05v48.1l-43.155 24.05-43.154-24.05z"/>
            <path d="M1122.705 1107.148l43.154-24.05 43.155 24.05v48.1l-43.155 24.05-43.154-24.05z"/>
            <path d="M1209.011 1107.148l43.154-24.05 43.155 24.05v48.1l-43.155 24.05-43.154-24.05z"/>
            <path d="M1295.317 1107.148l43.154-24.05 43.155 24.05v48.1l-43.155 24.05-43.154-24.05z"/>
            <path d="M1381.623 1107.148l43.155-24.05 43.154 24.05v48.1l-43.154 24.05-43.155-24.05zM43.88 1034.997l43.155-24.05 43.154 24.05v48.1l-43.154 24.05-43.154-24.05z"/>
            <path d="M130.187 1034.997l43.154-24.05 43.154 24.05v48.1l-43.154 24.05-43.154-24.05z"/>
            <path d="M216.493 1034.997l43.154-24.05 43.154 24.05v48.1l-43.154 24.05-43.154-24.05z"/>
            <path d="M302.799 1034.997l43.154-24.05 43.154 24.05v48.1l-43.154 24.05-43.154-24.05z"/>
            <path d="M389.105 1034.997l43.154-24.05 43.154 24.05v48.1l-43.154 24.05-43.154-24.05z"/>
            <path d="M475.41 1034.997l43.155-24.05 43.154 24.05v48.1l-43.154 24.05-43.154-24.05z"/>
            <path d="M561.717 1034.997l43.154-24.05 43.154 24.05v48.1l-43.154 24.05-43.154-24.05z"/>
            <path d="M648.023 1034.997l43.154-24.05 43.154 24.05v48.1l-43.154 24.05-43.154-24.05z"/>
            <path d="M734.329 1034.997l43.154-24.05 43.154 24.05v48.1l-43.154 24.05-43.154-24.05z"/>
            <path d="M820.635 1034.997l43.154-24.05 43.154 24.05v48.1l-43.154 24.05-43.154-24.05z"/>
            <path d="M906.941 1034.997l43.154-24.05 43.155 24.05v48.1l-43.155 24.05-43.154-24.05z"/>
            <path d="M993.247 1034.997l43.154-24.05 43.155 24.05v48.1l-43.155 24.05-43.154-24.05z"/>
            <path d="M1079.553 1034.997l43.154-24.05 43.155 24.05v48.1l-43.155 24.05-43.154-24.05z"/>
            <path d="M1165.86 1034.997l43.154-24.05 43.154 24.05v48.1l-43.154 24.05-43.155-24.05z"/>
            <path d="M1252.165 1034.997l43.155-24.05 43.154 24.05v48.1l-43.154 24.05-43.155-24.05z"/>
            <path d="M1338.471 1034.997l43.155-24.05 43.154 24.05v48.1l-43.154 24.05-43.155-24.05z"/>
        </g>
        <circle cx="734.5" cy="590.5" r="565.5" fill="url(#a)"/>
    </g>
</svg>
