<svg xmlns="http://www.w3.org/2000/svg" xmlns:xlink="http://www.w3.org/1999/xlink" width="127" height="134" viewBox="0 0 127 134">
    <defs>
        <path id="b" d="M42.12 1.296a9.54 9.54 0 0 0-9.602 0L4.801 17.436A9.7 9.7 0 0 0 0 25.822v32.28c0 3.459 1.83 6.655 4.8 8.385l27.718 16.14a9.53 9.53 0 0 0 9.603 0l27.718-16.14a9.698 9.698 0 0 0 4.8-8.386V25.822a9.7 9.7 0 0 0-4.8-8.386L42.121 1.296z"/>
        <filter id="a" width="200%" height="200%" x="-50%" y="-50%" filterUnits="objectBoundingBox">
            <feOffset dy="12" in="SourceAlpha" result="shadowOffsetOuter1"/>
            <feGaussianBlur in="shadowOffsetOuter1" result="shadowBlurOuter1" stdDeviation="13"/>
            <feColorMatrix in="shadowBlurOuter1" values="0 0 0 0 0.0549019608 0 0 0 0 0.462745098 0 0 0 0 0.658823529 0 0 0 0.3 0"/>
        </filter>
    </defs>
    <g fill="none" fill-rule="evenodd">
        <g transform="translate(26 13)">
            <use fill="#000" filter="url(#a)" xlink:href="#b"/>
            <use fill="#0E76A8" xlink:href="#b"/>
        </g>
        <g fill="#FEFEFE">
            <path d="M51.05 36.296c2.236 0 4.048 1.8 4.048 4.012 0 2.216-1.812 4.014-4.047 4.014-2.243 0-4.051-1.798-4.051-4.014 0-2.212 1.808-4.012 4.05-4.012zm-3.496 33.341h6.99V47.368h-6.99v22.269zM58.925 47.367h6.693v3.043h.095c.931-1.751 3.21-3.597 6.607-3.597 7.065 0 8.372 4.61 8.372 10.609v12.215h-6.976V58.809c0-2.584-.052-5.906-3.63-5.906-3.633 0-4.187 2.813-4.187 5.718v11.016h-6.974v-22.27z"/>
        </g>
    </g>
</svg>
