<svg xmlns="http://www.w3.org/2000/svg" xmlns:xlink="http://www.w3.org/1999/xlink" width="127" height="134" viewBox="0 0 127 134">
    <defs>
        <path id="b" d="M42.12 1.296a9.54 9.54 0 0 0-9.602 0L4.801 17.436A9.7 9.7 0 0 0 0 25.822v32.28c0 3.459 1.83 6.655 4.8 8.385l27.718 16.14a9.53 9.53 0 0 0 9.603 0l27.718-16.14a9.698 9.698 0 0 0 4.8-8.386V25.822a9.7 9.7 0 0 0-4.8-8.386L42.121 1.296z"/>
        <filter id="a" width="200%" height="200%" x="-50%" y="-50%" filterUnits="objectBoundingBox">
            <feOffset dy="12" in="SourceAlpha" result="shadowOffsetOuter1"/>
            <feGaussianBlur in="shadowOffsetOuter1" result="shadowBlurOuter1" stdDeviation="13"/>
            <feColorMatrix in="shadowBlurOuter1" values="0 0 0 0 0.11372549 0 0 0 0 0.631372549 0 0 0 0 0.949019608 0 0 0 0.3 0"/>
        </filter>
    </defs>
    <g fill="none" fill-rule="evenodd">
        <g transform="translate(26 13)">
            <use fill="#000" filter="url(#a)" xlink:href="#b"/>
            <use fill="#1DA1F2" xlink:href="#b"/>
        </g>
        <path fill="#FFF" d="M57.765 72.25c14.717 0 22.766-12.409 22.766-23.17 0-.352 0-.702-.023-1.052a16.443 16.443 0 0 0 3.992-4.215c-1.46.659-3.01 1.09-4.596 1.281a8.148 8.148 0 0 0 3.518-4.503 15.867 15.867 0 0 1-5.08 1.976c-2.481-2.684-6.422-3.34-9.614-1.602-3.192 1.738-4.841 5.44-4.023 9.029-6.433-.328-12.428-3.421-16.49-8.508-2.124 3.72-1.04 8.48 2.477 10.87a7.837 7.837 0 0 1-3.632-1.02v.104c.001 3.876 2.686 7.215 6.42 7.982a7.854 7.854 0 0 1-3.614.14c1.049 3.317 4.053 5.59 7.476 5.655a15.879 15.879 0 0 1-9.937 3.493 16.009 16.009 0 0 1-1.905-.118 22.367 22.367 0 0 0 12.265 3.652"/>
    </g>
</svg>
