<svg xmlns="http://www.w3.org/2000/svg" xmlns:xlink="http://www.w3.org/1999/xlink" width="127" height="134" viewBox="0 0 127 134">
    <defs>
        <path id="b" d="M42.12 1.296a9.54 9.54 0 0 0-9.602 0L4.801 17.436A9.7 9.7 0 0 0 0 25.822v32.28c0 3.459 1.83 6.655 4.8 8.385l27.718 16.14a9.53 9.53 0 0 0 9.603 0l27.718-16.14a9.698 9.698 0 0 0 4.8-8.386V25.822a9.7 9.7 0 0 0-4.8-8.386L42.121 1.296z"/>
        <filter id="a" width="200%" height="200%" x="-50%" y="-50%" filterUnits="objectBoundingBox">
            <feOffset dy="12" in="SourceAlpha" result="shadowOffsetOuter1"/>
            <feGaussianBlur in="shadowOffsetOuter1" result="shadowBlurOuter1" stdDeviation="13"/>
            <feColorMatrix in="shadowBlurOuter1" values="0 0 0 0 0.505882353 0 0 0 0 0.0431372549 0 0 0 0 0.650980392 0 0 0 0.3 0"/>
        </filter>
    </defs>
    <g fill="none" fill-rule="evenodd">
        <g transform="translate(26 13)">
            <use fill="#000" filter="url(#a)" xlink:href="#b"/>
            <use fill="#810AA6" xlink:href="#b"/>
        </g>
        <path fill="#FFF" d="M79.153 40.567a4.19 4.19 0 0 0-2.1-.567H51.23a4.19 4.19 0 0 0-2.1.567l15.011 14.29 15.01-14.29zM47.618 42.05A4.201 4.201 0 0 0 47 44.238v19.07a4.2 4.2 0 0 0 .525 2.037l11.18-12.74L47.619 42.05zm33.141 23.295a4.2 4.2 0 0 0 .525-2.036V44.238c0-.8-.229-1.548-.618-2.188L69.578 52.606 80.76 65.345zm-16.617-7.564l-3.901-3.714L48.985 66.89a4.19 4.19 0 0 0 2.247.657h25.82a4.19 4.19 0 0 0 2.247-.657L68.043 54.067l-3.901 3.714z"/>
    </g>
</svg>
