<svg xmlns="http://www.w3.org/2000/svg" width="385" height="294" viewBox="0 0 385 294">
    <g fill="#2F1514" fill-rule="evenodd">
        <path d="M38.868 284.538v-.053c0-4.165-3.07-7.572-7.303-7.572-4.232 0-7.248 3.354-7.248 7.52v.052c0 4.167 3.069 7.573 7.301 7.573 4.233 0 7.25-3.354 7.25-7.52m-16.72 0v-.053c0-5.057 3.835-9.485 9.47-9.485 5.636 0 9.419 4.376 9.419 9.434v.051c0 5.058-3.836 9.485-9.472 9.485-5.634 0-9.417-4.375-9.417-9.432M15.609 275.315l-6.747 10.01-6.746-10.01H0v18.341h2.037v-14.83l6.746 9.8h.107l6.745-9.826v14.856h2.09v-18.34zM53.74 291.796c2.804 0 4.55-1.231 4.55-3.275v-.053c0-1.99-1.693-3.144-4.921-3.144h-5.846v6.472h6.216zm-.741-8.306c2.513 0 4.259-1.127 4.259-3.276v-.052c0-1.808-1.455-2.987-4.1-2.987h-5.635v6.315h5.476zm-7.54-8.175h7.884c2.116 0 3.783.603 4.842 1.624.767.786 1.19 1.756 1.19 2.935v.053c0 2.383-1.482 3.615-2.937 4.244 2.196.655 3.969 1.913 3.969 4.428v.053c0 3.144-2.673 5.005-6.72 5.005H45.46v-18.342zM64.748 293.656h2.09v-18.341h-2.09zM72.262 275.315h2.09v16.428h10.424v1.913H72.262zM88.641 275.315h13.387v1.886H90.73v6.263h10.107v1.886H90.73v6.42h11.429v1.886H88.64zM126.318 286.949l-4.205-9.354-4.235 9.354h8.44zm-5.16-11.765h1.96l8.439 18.472h-2.25l-2.169-4.847h-10.08l-2.195 4.847h-2.144l8.44-18.472zM141.878 285.298c3.068 0 5.08-1.624 5.08-4.035v-.053c0-2.62-1.985-3.983-4.975-3.983h-4.682v8.07h4.577zm-6.667-9.983h6.931c4.18 0 6.932 2.2 6.932 5.817v.052c0 3.957-3.333 6-7.275 6H137.3v6.473h-2.09v-18.342zM159.554 285.298c3.068 0 5.08-1.624 5.08-4.035v-.053c0-2.62-1.985-3.983-4.975-3.983h-4.682v8.07h4.577zm-6.667-9.983h6.931c4.18 0 6.932 2.2 6.932 5.817v.052c0 3.957-3.333 6-7.275 6h-4.498v6.473h-2.09v-18.342zM184.929 291.743c4.682 0 7.672-3.144 7.672-7.205v-.053c0-4.06-2.99-7.258-7.672-7.258h-4.34v14.516h4.34zm-6.43-16.428h6.43c5.82 0 9.841 3.957 9.841 9.119v.051c0 5.162-4.02 9.171-9.841 9.171h-6.43v-18.341zM199.191 275.315h13.388v1.886h-11.297v6.263h10.106v1.886h-10.106v6.42h11.429v1.886h-13.52zM215.332 275.315h2.329l6.588 15.8 6.614-15.8h2.249l-7.964 18.472h-1.852zM236.766 275.315h13.386v1.886h-11.296v6.263h10.106v1.886h-10.106v6.42h11.428v1.886h-13.518zM254.493 275.315h2.09v16.428h10.425v1.913h-12.515zM285.715 284.538v-.053c0-4.165-3.069-7.572-7.302-7.572s-7.249 3.354-7.249 7.52v.052c0 4.167 3.07 7.573 7.302 7.573 4.233 0 7.249-3.354 7.249-7.52m-16.72 0v-.053c0-5.057 3.836-9.485 9.47-9.485 5.637 0 9.42 4.376 9.42 9.434v.051c0 5.058-3.837 9.485-9.472 9.485s-9.418-4.375-9.418-9.432M298.974 285.298c3.068 0 5.079-1.624 5.079-4.035v-.053c0-2.62-1.985-3.983-4.975-3.983h-4.682v8.07h4.578zm-6.668-9.983h6.931c4.181 0 6.932 2.2 6.932 5.817v.052c0 3.957-3.333 6-7.275 6h-4.498v6.473h-2.09v-18.342zM309.982 275.315h2.116l6.747 10.009 6.746-10.01h2.116v18.342h-2.09V278.8l-6.746 9.825h-.106l-6.746-9.8v14.831h-2.037zM332.949 275.315h13.387v1.886H335.04v6.263h10.106v1.886h-10.106v6.42h11.429v1.886h-13.52zM350.678 275.315h1.957l11.667 14.7v-14.7h2.038v18.341h-1.667l-11.958-15.04v15.04h-2.037zM376.475 277.227h-6.217v-1.912h14.551v1.912h-6.218v16.43h-2.116zM187.691 103.302h-20.15l32.288-58.606h20.15l-32.288 58.606zm61.883-72.554L200.926 2.286a16.683 16.683 0 0 0-16.854 0l-48.646 28.462c-5.214 3.05-8.426 8.69-8.426 14.79v56.924c0 6.1 3.212 11.738 8.426 14.788l48.646 28.462a16.666 16.666 0 0 0 16.854 0l48.648-28.462c5.214-3.05 8.426-8.688 8.426-14.788V45.538c0-6.1-3.212-11.74-8.426-14.79z"/>
        <g>
            <path d="M68.277 214.285c0 1.355-.435 2.656-1.305 3.9-.872 1.245-1.973 1.869-3.306 1.869-.872 0-2.32-.392-4.346-1.178-2.027-.787-3.749-1.178-5.162-1.178-2.149 0-3.992.576-5.529 1.73-1.536 1.152-2.688 2.666-3.45 4.537-.76 1.871-1.141 3.865-1.141 5.98 0 3.203.912 6.018 2.734 8.445 1.821 2.427 4.284 3.641 7.386 3.641.842 0 1.754-.155 2.734-.467a86.52 86.52 0 0 0 3.572-1.24c1.4-.512 2.278-.77 2.631-.77.924 0 1.78.236 2.57.71a5.412 5.412 0 0 1 1.898 1.902c.475.797.714 1.667.714 2.612 0 1.866-.864 3.417-2.592 4.658-1.728 1.244-3.759 2.148-6.1 2.714-2.34.566-4.351.85-6.04.85-4.162 0-7.889-1.035-11.181-3.107-3.29-2.072-5.84-4.874-7.65-8.41-1.81-3.534-2.714-7.388-2.714-11.557 0-2.98.523-5.87 1.57-8.675a23.905 23.905 0 0 1 4.468-7.494 20.859 20.859 0 0 1 6.898-5.159c2.666-1.245 5.535-1.87 8.61-1.87 1.85 0 3.939.251 6.263.752 2.327.502 4.32 1.315 5.978 2.437 1.66 1.124 2.49 2.58 2.49 4.368M91.892 217.698c-2.001 0-3.725.592-5.173 1.772-1.445 1.178-2.52 2.717-3.223 4.616a16.732 16.732 0 0 0-1.055 5.86c0 2.036.36 3.98 1.075 5.84.716 1.86 1.785 3.363 3.203 4.517 1.42 1.152 3.144 1.728 5.173 1.728 2.055 0 3.792-.576 5.212-1.728 1.42-1.154 2.49-2.658 3.205-4.517a16.104 16.104 0 0 0 1.075-5.84c0-2.006-.351-3.955-1.055-5.84-.704-1.885-1.771-3.425-3.205-4.617-1.434-1.193-3.177-1.791-5.232-1.791m0-10.97c3.082 0 5.956.63 8.62 1.89 2.663 1.26 4.948 2.972 6.854 5.139a23.783 23.783 0 0 1 4.42 7.393c1.042 2.763 1.563 5.69 1.563 8.776 0 3.115-.521 6.072-1.563 8.877-1.039 2.803-2.487 5.254-4.339 7.352-1.85 2.1-4.123 3.764-6.815 4.998-2.691 1.233-5.603 1.847-8.74 1.847-4.137 0-7.842-1.035-11.115-3.107-3.27-2.072-5.805-4.874-7.604-8.41-1.799-3.534-2.697-7.388-2.697-11.557 0-2.98.52-5.87 1.56-8.673 1.042-2.804 2.522-5.301 4.442-7.496a20.744 20.744 0 0 1 6.856-5.159c2.65-1.245 5.502-1.87 8.558-1.87M147.487 229.568c0-3.225-.822-6-2.468-8.332-1.647-2.331-3.977-3.496-6.997-3.496-1.957 0-3.65.604-5.078 1.812-1.429 1.204-2.496 2.741-3.202 4.61a16.28 16.28 0 0 0-1.06 5.813c0 1.38.203 2.803.611 4.267a13.667 13.667 0 0 0 1.794 3.962 8.96 8.96 0 0 0 2.958 2.803c1.183.693 2.509 1.038 3.977 1.038 2.04 0 3.78-.61 5.222-1.831 1.442-1.216 2.51-2.795 3.202-4.732a17.425 17.425 0 0 0 1.04-5.914m12.035-34.914v51.164c0 1.298-.26 2.454-.774 3.468-.517 1.016-1.24 1.8-2.163 2.355-.925.554-1.958.831-3.101.831-3.236 0-5.236-1.658-5.996-4.97-1.115 1.752-2.687 3.105-4.712 4.064a14.723 14.723 0 0 1-6.343 1.434c-3.835 0-7.268-1.07-10.3-3.206-3.034-2.137-5.372-4.95-7.017-8.44-1.646-3.49-2.468-7.114-2.468-10.873 0-4.057.734-7.898 2.202-11.522 1.468-3.625 3.679-6.56 6.629-8.805 2.952-2.246 6.466-3.369 10.545-3.369 1.36 0 2.72.157 4.08.469a17.9 17.9 0 0 1 3.875 1.359 16.558 16.558 0 0 1 3.509 2.313v-16.272c0-1.974.55-3.575 1.651-4.807 1.101-1.232 2.552-1.847 4.345-1.847 1.169 0 2.21.278 3.121.833.912.554 1.626 1.34 2.143 2.353.514 1.014.774 2.17.774 3.468M174.761 225.863h18.988c-.325-2.735-1.322-4.942-2.997-6.622-1.673-1.679-3.846-2.519-6.517-2.519-2.565 0-4.697.854-6.398 2.56-1.7 1.707-2.725 3.9-3.076 6.581m25.709 8.003h-25.426c.406 2.844 1.647 4.995 3.726 6.46 2.078 1.461 4.588 2.192 7.53 2.192 1.807 0 3.345-.284 4.614-.852 1.27-.57 2.855-1.376 4.757-2.417 1.903-1.043 3.286-1.565 4.151-1.565.81 0 1.598.25 2.368.752a5.69 5.69 0 0 1 1.84 1.93 4.82 4.82 0 0 1 .69 2.478c0 1.245-.572 2.477-1.72 3.697-1.149 1.217-2.673 2.308-4.575 3.269-1.903.961-4.048 1.732-6.438 2.316-2.389.582-4.65.874-6.78.874-4.347 0-8.233-.995-11.661-2.987-3.427-1.99-6.072-4.738-7.934-8.246-1.863-3.507-2.794-7.454-2.794-11.842 0-2.98.533-5.876 1.6-8.692 1.067-2.819 2.55-5.323 4.452-7.516a20.238 20.238 0 0 1 6.843-5.139c2.657-1.233 5.5-1.85 8.522-1.85 3.102 0 5.998.644 8.685 1.932 2.684 1.285 4.958 2.985 6.821 5.096a24.645 24.645 0 0 1 4.371 7.05c1.053 2.586 1.58 5.152 1.58 7.697 0 3.575-1.74 5.363-5.222 5.363M210.089 245.303v-50.708c0-1.957.55-3.545 1.65-4.766 1.1-1.221 2.55-1.829 4.34-1.829 1.169 0 2.209.275 3.12.824.91.548 1.624 1.327 2.14 2.332.514 1.005.773 2.151.773 3.439v16.125h.164c1.142-1.394 2.724-2.428 4.749-3.096a19.506 19.506 0 0 1 6.174-1.005c3.153 0 5.977.637 8.478 1.909 2.5 1.272 4.456 3.11 5.869 5.51 1.413 2.398 2.118 5.248 2.118 8.545v22.72c0 1.286-.257 2.433-.773 3.44-.516 1.004-1.237 1.783-2.16 2.331-.923.549-1.957.824-3.097.824-1.794 0-3.24-.61-4.34-1.828-1.103-1.221-1.653-2.81-1.653-4.767v-20.67c0-2.654-.727-4.671-2.18-6.051-1.453-1.383-3.348-2.07-5.686-2.07-1.574 0-2.95.355-4.117 1.065a6.889 6.889 0 0 0-2.649 2.875c-.596 1.205-.897 2.599-.897 4.182v20.67c0 1.285-.259 2.432-.773 3.438-.516 1.005-1.238 1.784-2.16 2.332-.925.549-1.957.824-3.1.824-1.79 0-3.24-.61-4.34-1.828-1.1-1.221-1.65-2.81-1.65-4.767M255.917 245.28v-31.721c0-1.964.536-3.558 1.608-4.781 1.073-1.226 2.485-1.838 4.232-1.838 1.138 0 2.152.277 3.04.827.888.55 1.584 1.332 2.087 2.34.501 1.01.754 2.161.754 3.452v31.72c0 1.291-.253 2.442-.754 3.452-.503 1.009-1.207 1.79-2.106 2.34-.902.551-1.908.827-3.021.827-1.747 0-3.16-.611-4.232-1.835-1.072-1.225-1.608-2.82-1.608-4.783m5.84-56.178c1.167 0 2.252.31 3.258.93a7.194 7.194 0 0 1 2.425 2.44c.61 1.008.913 2.064.913 3.17 0 1.854-.641 3.462-1.928 4.822-1.284 1.358-2.84 2.036-4.668 2.036-1.721 0-3.252-.698-4.59-2.097-1.336-1.4-2.006-2.988-2.006-4.762 0-1.695.67-3.208 2.007-4.54 1.337-1.332 2.868-2 4.589-2M284.408 246.91l-12.029-30.857c-.487-1.297-.728-2.458-.728-3.485 0-1.84.608-3.272 1.822-4.299 1.216-1.029 2.687-1.54 4.414-1.54 2.592 0 4.36 1.417 5.305 4.256l7.615 23.558h.162l7.654-23.558c.891-2.839 2.66-4.256 5.307-4.256 1.727 0 3.193.505 4.395 1.518 1.2 1.016 1.802 2.455 1.802 4.32 0 1.028-.244 2.19-.73 3.486l-12.03 30.857c-.647 1.729-1.422 2.994-2.327 3.79-.907.798-2.289 1.198-4.152 1.198-1.864 0-3.234-.392-4.111-1.177-.876-.783-1.666-2.052-2.369-3.81M322.07 225.863h18.987c-.324-2.735-1.322-4.942-2.997-6.622-1.672-1.679-3.846-2.519-6.516-2.519-2.566 0-4.698.854-6.398 2.56-1.7 1.707-2.726 3.9-3.077 6.581m25.709 8.003h-25.426c.406 2.844 1.647 4.995 3.726 6.46 2.079 1.461 4.589 2.192 7.53 2.192 1.808 0 3.346-.284 4.615-.852 1.268-.57 2.854-1.376 4.756-2.417 1.903-1.043 3.287-1.565 4.152-1.565.81 0 1.597.25 2.367.752a5.69 5.69 0 0 1 1.841 1.93 4.82 4.82 0 0 1 .689 2.478c0 1.245-.572 2.477-1.72 3.697-1.148 1.217-2.673 2.308-4.575 3.269-1.902.961-4.048 1.732-6.437 2.316-2.39.582-4.65.874-6.78.874-4.348 0-8.233-.995-11.662-2.987-3.427-1.99-6.071-4.738-7.934-8.246-1.863-3.507-2.793-7.454-2.793-11.842 0-2.98.532-5.876 1.6-8.692 1.066-2.819 2.549-5.323 4.451-7.516a20.238 20.238 0 0 1 6.844-5.139c2.656-1.233 5.499-1.85 8.522-1.85 3.102 0 5.998.644 8.684 1.932 2.684 1.285 4.959 2.985 6.821 5.096a24.645 24.645 0 0 1 4.371 7.05c1.053 2.586 1.58 5.152 1.58 7.697 0 3.575-1.74 5.363-5.222 5.363"/>
        </g>
    </g>
</svg>
